<?xml version="1.0" encoding="UTF-8" standalone="no"?>
<svg
   width="84.522095"
   height="39.191917"
   version="1.1"
   id="svg24"
   sodipodi:docname="3_WireMock_Logo_Combined.svg"
   inkscape:version="1.2.2 (732a01da63, 2022-12-09)"
   xmlns:inkscape="http://www.inkscape.org/namespaces/inkscape"
   xmlns:sodipodi="http://sodipodi.sourceforge.net/DTD/sodipodi-0.dtd"
   xmlns="http://www.w3.org/2000/svg"
   xmlns:svg="http://www.w3.org/2000/svg">
  <defs
     id="defs28" />
  <sodipodi:namedview
     id="namedview26"
     pagecolor="#ffffff"
     bordercolor="#000000"
     borderopacity="0.25"
     inkscape:showpageshadow="2"
     inkscape:pageopacity="0.0"
     inkscape:pagecheckerboard="0"
     inkscape:deskcolor="#d1d1d1"
     showgrid="false"
     inkscape:zoom="9.7698587"
     inkscape:cx="59.315085"
     inkscape:cy="5.8342707"
     inkscape:window-width="1920"
     inkscape:window-height="1009"
     inkscape:window-x="-8"
     inkscape:window-y="-8"
     inkscape:window-maximized="1"
     inkscape:current-layer="g191" />
  <!--http://www.w3.org/TR/SVG/paths.html#PathDataEllipticalArcCommands-->
  <mask
     id="wlarge_filter">
    <!--  d="m 13.4286,21 3.3143,-10 h 0.8285 l -3.3142,10 z" -->
  </mask>
  <g
     id="g191"
     transform="matrix(2.8570496,0,0,2.7400458,-3.4289752,-30.139649)">
    <path
       id="wlarge"
       d="m 1.2001805,10.999688 3.3565549,9.999976 h 2.9087863 l 1.7903905,-4.888434 1.7903908,4.888434 h 2.478791 l 3.217781,-9.999976 h -2.826752 l -1.527198,4.777948 -1.678278,-4.777948 H 7.8011772 L 6.2350128,15.777636 4.6688484,10.999688 Z"
       style="fill:#0fb2ef;fill-opacity:1" />
    <path
       d="M 18.3027,11 15,21 h 3.4128 L 19.954,16.2222 21.4953,21 h 2.8623 L 26.009,16.2222 27.4402,21 h 3.3027 L 27.5502,11 H 24.6879 L 22.9265,15.8889 21.165,11 Z"
       fill="#f59121"
       id="mlarge" />
  </g>
  <g
     id="g201"
     transform="matrix(1.0198508,0,0,1.0204711,-0.50124897,-21.531652)">
    <path
       d="M 4.0133663,59.292668 0.86851625,49.718204 H 4.1181963 l 1.4676,4.574464 1.4676,-4.574464 h 2.72554 l 1.5723797,4.574464 1.3628,-4.574464 h 3.1449 l -3.0401,9.574464 h -2.72549 l -1.6772597,-4.68085 -1.67726,4.68085 z"
       fill="#0fb2ef"
       id="path8" />
    <path
       d="m 42.275816,49.718191 -3.1448,9.574467 h 3.2496 l 1.4676,-4.57447 1.4676,4.57447 h 2.7256 l 1.5724,-4.57447 1.3628,4.57447 h 3.1448 l -3.04,-9.574467 h -2.7255 l -1.6773,4.680847 -1.6773,-4.680847 z"
       fill="#f59121"
       id="path10" />
    <path
       d="m 16.487916,49.718204 h 3.1448 v 9.574464 h -3.1448 z"
       fill="#0fb2ef"
       id="path12" />
    <path
       fill-rule="evenodd"
       clip-rule="evenodd"
       d="m 38.501916,52.377778 v -2.659573 l -8.1766,-10e-7 v 4e-6 2.65957 0.85106 2.34043 1.06383 2.65958 h 3.1448 5.0318 v -2.65958 h -5.0318 v -1.06383 h 4.6125 v -2.34043 h -4.6125 v -0.85106 z"
       fill="#0fb2ef"
       id="path14" />
    <path
       fill-rule="evenodd"
       clip-rule="evenodd"
       d="m 22.777616,49.718204 h 3.5144 c 1.8801,0 3.4042,1.524134 3.4042,3.404254 0,1.31238 -0.7426,2.4513 -1.8305,3.01948 l 2.0402,3.15074 h -3.5642 l -1.782,-2.76596 v 0 h -0.7338 v 2.76596 h -3.1449 v -9.57447 h 2.0966 z m 1.0483,2.659564 v 1.91489 h 1.768 c 0.5288,0 0.9575,-0.42866 0.9575,-0.95745 0,-0.52878 -0.4287,-0.95744 -0.9575,-0.95744 z"
       fill="#0fb2ef"
       id="path16" />
    <path
       fill-rule="evenodd"
       clip-rule="evenodd"
       d="m 58.000116,59.505428 c 2.8947,0 5.2414,-2.23858 5.2414,-5 0,-2.76142 -2.3467,-5 -5.2414,-5 -2.8948,0 -5.2415,2.23858 -5.2415,5 0,2.76142 2.3467,5 5.2415,5 z m 1.8869,-4.99999 c 0,-1.17508 -0.8448,-2.12766 -1.8869,-2.12766 -1.0421,0 -1.8869,0.95258 -1.8869,2.12766 0,1.17507 0.8448,2.12766 1.8869,2.12766 1.0421,0 1.8869,-0.95259 1.8869,-2.12766 z"
       fill="#f59121"
       id="path18" />
    <path
       fill-rule="evenodd"
       clip-rule="evenodd"
       d="m 73.045716,57.014668 c -0.8713,1.48941 -2.4946,2.49076 -4.3532,2.49076 -2.779,0 -5.0318,-2.23858 -5.0318,-5 0,-2.76142 2.2528,-5 5.0318,-5 1.8464,0 3.4604,0.988175 4.3359,2.46132 l -2.6983,1.62815 c -0.2905,-0.71954 -0.9146,-1.21712 -1.6376,-1.21712 -1.0004,0 -1.8114,0.95258 -1.8114,2.12766 0,1.17507 0.811,2.12766 1.8114,2.12766 0.766,0 1.421,-0.55855 1.6859,-1.34783 z"
       fill="#f59121"
       id="path20" />
    <path
       fill-rule="evenodd"
       clip-rule="evenodd"
       d="m 76.869116,53.287178 v -3.568961 h -3.1449 v 9.574471 h 3.1449 v -1.99431 l 0.8487,-0.98984 1.9816,2.98413 h 3.5642 l -3.4005,-5.48616 3.5053,-4.088304 h -3.7738 z"
       fill="#f59121"
       id="path22" />
  </g>
</svg>
